<svg width="446" height="212" viewBox="0 0 446 212" fill="none" xmlns="http://www.w3.org/2000/svg">
<path d="M381.029 88.8011C375.203 92.1647 369.435 93.7803 363.725 93.6479C358.026 93.4741 352.694 91.7237 347.729 88.3969C342.775 85.0286 338.511 80.2478 334.935 74.0544C331.359 67.861 329.336 61.7509 328.866 55.7241C328.406 49.6559 329.445 44.1223 331.983 39.1232C334.531 34.0828 338.535 29.9868 343.993 26.8353C347.143 25.0171 350.556 23.7465 354.232 23.0235C357.909 22.3005 361.688 22.3927 365.571 23.3C369.439 24.1811 373.235 26.1187 376.958 29.1128C380.681 32.1069 384.171 36.4252 387.429 42.0674L387.702 42.5398C388.806 44.453 388.151 46.8993 386.237 48.0039L346.558 70.913C344.645 72.0176 342.198 71.3621 341.094 69.4489L340.457 68.3467C339.353 66.4335 340.008 63.9872 341.921 62.8826L372.153 45.428C374.067 44.3235 374.752 41.8473 373.373 40.1214C371.88 38.2521 370.188 36.7041 368.298 35.4772C365.414 33.5731 362.279 32.5666 358.892 32.4577C355.531 32.3336 352.171 33.2412 348.812 35.1806C345.111 37.317 342.44 40.084 340.798 43.4816C339.166 46.8378 338.47 50.3891 338.708 54.1354C338.947 57.8818 340.028 61.4214 341.952 64.7543L345.043 70.1079C347.679 74.6742 350.702 78.0905 354.11 80.3569C357.529 82.5818 361.132 83.7027 364.921 83.7197C368.695 83.7104 372.458 82.6224 376.211 80.4558C378.652 79.0467 380.659 77.4328 382.233 75.6141C383.819 73.754 384.932 71.7119 385.572 69.4877C385.89 68.3442 386.072 67.1616 386.118 65.9397C386.197 63.8639 387.419 61.8862 389.432 61.3724L392.319 60.6352C394.501 60.0782 396.753 61.4366 396.857 63.6861C396.961 65.9222 396.734 68.1598 396.175 70.3989C395.263 73.9699 393.538 77.3454 391 80.5252C388.447 83.6788 385.123 86.4375 381.029 88.8011Z" fill="white"/>
<path d="M24.2355 93.0909C22.4754 93.0909 20.9222 91.9404 20.4092 90.2567L1.57397 28.4386C0.790924 25.8686 2.71367 23.2727 5.4003 23.2727H8.24564C10.0362 23.2727 11.6087 24.4627 12.0952 26.186L26.265 76.3779C26.3233 76.5846 26.5119 76.7273 26.7267 76.7273V76.7273C26.942 76.7273 27.1309 76.5838 27.1888 76.3764L41.1841 26.1981C41.6664 24.4688 43.2418 23.2727 45.037 23.2727H50.4103C52.209 23.2727 53.7864 24.4733 54.2657 26.2069L68.0846 76.1938C68.142 76.4016 68.3311 76.5455 68.5466 76.5455V76.5455C68.7611 76.5455 68.9494 76.4031 69.0079 76.1967L83.1757 26.1825C83.6634 24.461 85.235 23.2727 87.0243 23.2727H89.8724C92.5591 23.2727 94.4818 25.8686 93.6988 28.4386L74.8635 90.2567C74.3505 91.9404 72.7973 93.0909 71.0372 93.0909H66.4746C64.6873 93.0909 63.1169 91.9053 62.6275 90.1864L48.3312 39.9791C48.2428 39.6687 47.9592 39.4545 47.6364 39.4545V39.4545C47.3136 39.4545 47.0299 39.6687 46.9415 39.9791L32.6452 90.1864C32.1558 91.9053 30.5854 93.0909 28.7982 93.0909H24.2355Z" fill="white"/>
<path d="M129.318 94.7273C124.894 94.7273 120.879 93.8939 117.273 92.2273C113.667 90.5303 110.803 88.0909 108.682 84.9091C106.561 81.697 105.5 77.8182 105.5 73.2727C105.5 69.2727 106.288 66.0303 107.864 63.5455C109.439 61.0303 111.545 59.0606 114.182 57.6364C116.818 56.2121 119.727 55.1515 122.909 54.4545C126.121 53.7273 129.348 53.1515 132.591 52.7273C136.833 52.1818 140.273 51.7727 142.909 51.5C145.576 51.197 147.515 50.697 148.727 50C149.97 49.303 150.591 48.0909 150.591 46.3636V46C150.591 41.5152 149.364 38.0303 146.909 35.5455C144.485 33.0606 140.803 31.8182 135.864 31.8182C130.742 31.8182 126.727 32.9394 123.818 35.1818C122.118 36.4928 120.712 37.8555 119.602 39.27C118.325 40.8961 116.192 41.8316 114.245 41.1363L111.508 40.1585C109.335 39.3828 108.238 36.9125 109.434 34.94C110.933 32.4654 112.713 30.4248 114.773 28.8182C117.833 26.4242 121.167 24.7576 124.773 23.8182C128.409 22.8485 131.985 22.3636 135.5 22.3636C137.742 22.3636 140.318 22.6364 143.227 23.1818C146.167 23.697 149 24.7727 151.727 26.4091C154.485 28.0455 156.773 30.5152 158.591 33.8182C160.409 37.1212 161.318 41.5455 161.318 47.0909V89.0909C161.318 91.3001 159.527 93.0909 157.318 93.0909H154.591C152.382 93.0909 150.591 91.3001 150.591 89.0909V83.9712C150.591 83.7863 150.441 83.6364 150.256 83.6364V83.6364C150.127 83.6364 150.011 83.7102 149.953 83.8252C149.217 85.286 148.036 86.8443 146.409 88.5C144.712 90.2273 142.455 91.697 139.636 92.9091C136.818 94.1212 133.379 94.7273 129.318 94.7273ZM130.955 85.0909C135.197 85.0909 138.773 84.2576 141.682 82.5909C144.621 80.9242 146.833 78.7727 148.318 76.1364C149.833 73.5 150.591 70.7273 150.591 67.8182V61.3939C150.591 60.2447 148.693 59.1757 147.591 59.5V59.5C146.076 59.9242 144.318 60.303 142.318 60.6364C140.348 60.9394 138.424 61.2121 136.545 61.4545C134.697 61.6667 133.197 61.8485 132.045 62C129.258 62.3636 126.652 62.9545 124.227 63.7727C121.833 64.5606 119.894 65.7576 118.409 67.3636C116.955 68.9394 116.227 71.0909 116.227 73.8182C116.227 77.5455 117.606 80.3636 120.364 82.2727C123.152 84.1515 126.682 85.0909 130.955 85.0909Z" fill="white"/>
<path d="M192.307 51.0909V89.0909C192.307 91.3001 190.516 93.0909 188.307 93.0909H185.58C183.37 93.0909 181.58 91.3001 181.58 89.0909V27.2727C181.58 25.0636 183.37 23.2727 185.58 23.2727H187.943C190.152 23.2727 191.943 25.0636 191.943 27.2727V33.6274C191.943 33.9336 192.191 34.1818 192.498 34.1818V34.1818C192.714 34.1818 192.91 34.0558 193.004 33.861C194.64 30.4641 197.075 27.7226 200.307 25.6364C203.64 23.4545 207.943 22.3636 213.216 22.3636C217.943 22.3636 222.08 23.3333 225.625 25.2727C229.17 27.1818 231.928 30.0909 233.898 34C235.867 37.8788 236.852 42.7879 236.852 48.7273V89.0909C236.852 91.3001 235.061 93.0909 232.852 93.0909H230.125C227.916 93.0909 226.125 91.3001 226.125 89.0909V49.4545C226.125 43.9697 224.701 39.697 221.852 36.6364C219.004 33.5455 215.095 32 210.125 32C206.701 32 203.64 32.7424 200.943 34.2273C198.277 35.7121 196.17 37.8788 194.625 40.7273C193.08 43.5758 192.307 47.0303 192.307 51.0909Z" fill="white"/>
<path d="M282.818 94.5455C277 94.5455 271.864 93.0758 267.409 90.1364C262.955 87.1667 259.47 82.9849 256.955 77.5909C254.439 72.1667 253.182 65.7576 253.182 58.3636C253.182 51.0303 254.439 44.6667 256.955 39.2727C259.47 33.8788 262.97 29.7121 267.455 26.7727C271.939 23.8333 277.121 22.3636 283 22.3636C287.545 22.3636 291.136 23.1212 293.773 24.6364C296.439 26.1212 298.47 27.8182 299.864 29.7273C301.185 31.4707 302.233 32.9271 303.007 34.0965C303.117 34.2628 303.302 34.3636 303.502 34.3636V34.3636C303.827 34.3636 304.091 34.0998 304.091 33.7743V4C304.091 1.79086 305.882 0 308.091 0H310.818C313.027 0 314.818 1.79086 314.818 4V89.0909C314.818 91.3 313.027 93.0909 310.818 93.0909H308.455C306.245 93.0909 304.455 91.3001 304.455 89.0909V83.181C304.455 82.7296 304.089 82.3636 303.637 82.3636V82.3636C303.354 82.3636 303.092 82.5103 302.94 82.749C302.17 83.9556 301.13 85.4332 299.818 87.1818C298.364 89.0909 296.288 90.803 293.591 92.3182C290.894 93.803 287.303 94.5455 282.818 94.5455ZM284.273 84.9091C288.576 84.9091 292.212 83.7879 295.182 81.5455C298.152 79.2727 300.409 76.1364 301.955 72.1364C303.5 68.1061 304.273 63.4545 304.273 58.1818C304.273 52.9697 303.515 48.4091 302 44.5C300.485 40.5606 298.242 37.5 295.273 35.3182C292.303 33.1061 288.636 32 284.273 32C279.727 32 275.939 33.1667 272.909 35.5C269.909 37.803 267.652 40.9394 266.136 44.9091C264.652 48.8485 263.909 53.2727 263.909 58.1818C263.909 63.1515 264.667 67.6667 266.182 71.7273C267.727 75.7576 270 78.9697 273 81.3636C276.03 83.7273 279.788 84.9091 284.273 84.9091Z" fill="white"/>
<path d="M414.455 93.0909C412.245 93.0909 410.455 91.3001 410.455 89.0909V27.2727C410.455 25.0636 412.245 23.2727 414.455 23.2727H416.818C419.027 23.2727 420.818 25.0636 420.818 27.2727V33.3897C420.818 33.6263 421.01 33.8182 421.247 33.8182V33.8182C421.426 33.8182 421.586 33.706 421.651 33.5387C422.944 30.2121 425.212 27.5023 428.455 25.4091C431.788 23.2576 435.545 22.1818 439.727 22.1818C440.515 22.1818 441.5 22.197 442.682 22.2273V22.2273C444.206 22.2664 445.364 23.5247 445.364 25.0495V30.7388C445.364 32.0259 444.138 33.0415 442.864 32.8636V32.8636C441.591 32.6515 440.242 32.5455 438.818 32.5455C435.424 32.5455 432.394 33.2576 429.727 34.6818C427.091 36.0758 425 38.0152 423.455 40.5C421.939 42.9545 421.182 45.7576 421.182 48.9091V89.0909C421.182 91.3 419.391 93.0909 417.182 93.0909H414.455Z" fill="white"/>
<path d="M24.2355 185.091C22.4754 185.091 20.9222 183.94 20.4092 182.257L1.57397 120.439C0.790924 117.869 2.71367 115.273 5.4003 115.273H8.24564C10.0362 115.273 11.6087 116.463 12.0952 118.186L26.265 168.378C26.3233 168.585 26.5119 168.727 26.7267 168.727V168.727C26.942 168.727 27.1309 168.584 27.1888 168.376L41.1841 118.198C41.6664 116.469 43.2418 115.273 45.037 115.273H50.4103C52.209 115.273 53.7864 116.473 54.2657 118.207L68.0846 168.194C68.142 168.402 68.3311 168.545 68.5466 168.545V168.545C68.7611 168.545 68.9494 168.403 69.0079 168.197L83.1757 118.183C83.6634 116.461 85.235 115.273 87.0243 115.273H89.8724C92.5591 115.273 94.4818 117.869 93.6988 120.439L74.8635 182.257C74.3505 183.94 72.7973 185.091 71.0372 185.091H66.4746C64.6873 185.091 63.1169 183.905 62.6275 182.186L48.3312 131.979C48.2428 131.669 47.9592 131.455 47.6364 131.455V131.455C47.3136 131.455 47.0299 131.669 46.9415 131.979L32.6452 182.186C32.1558 183.905 30.5854 185.091 28.7982 185.091H24.2355Z" fill="white"/>
<path d="M116.727 143.091V181.091C116.727 183.3 114.936 185.091 112.727 185.091H110C107.791 185.091 106 183.3 106 181.091V96C106 93.7909 107.791 92 110 92H112.727C114.936 92 116.727 93.7909 116.727 96V125.629C116.727 125.934 116.975 126.182 117.28 126.182V126.182C117.497 126.182 117.693 126.055 117.786 125.859C119.421 122.404 121.826 119.648 125 117.591C128.303 115.439 132.697 114.364 138.182 114.364C142.939 114.364 147.106 115.318 150.682 117.227C154.258 119.106 157.03 122 159 125.909C161 129.788 162 134.727 162 140.727V181.091C162 183.3 160.209 185.091 158 185.091H155.273C153.064 185.091 151.273 183.3 151.273 181.091V141.455C151.273 135.909 149.833 131.621 146.955 128.591C144.106 125.53 140.152 124 135.091 124C131.576 124 128.424 124.742 125.636 126.227C122.879 127.712 120.697 129.879 119.091 132.727C117.515 135.576 116.727 139.03 116.727 143.091Z" fill="white"/>
<path d="M178.909 185.091C176.7 185.091 174.909 183.3 174.909 181.091V119.273C174.909 117.064 176.7 115.273 178.909 115.273H181.636C183.846 115.273 185.636 117.064 185.636 119.273V181.091C185.636 183.3 183.846 185.091 181.636 185.091H178.909ZM182.545 104.273C180.455 104.273 178.652 103.561 177.136 102.136C175.652 100.712 174.909 99 174.909 97C174.909 95 175.652 93.2879 177.136 91.8636C178.652 90.4394 180.455 89.7273 182.545 89.7273C184.636 89.7273 186.424 90.4394 187.909 91.8636C189.424 93.2879 190.182 95 190.182 97C190.182 99 189.424 100.712 187.909 102.136C186.424 103.561 184.636 104.273 182.545 104.273Z" fill="white"/>
<path d="M247.918 127.046C248.968 129.075 247.706 131.43 245.508 132.052L243.444 132.636C241.445 133.202 239.373 132.113 238.24 130.372C237.93 129.895 237.592 129.423 237.227 128.955C236.076 127.409 234.5 126.136 232.5 125.136C230.5 124.136 227.939 123.636 224.818 123.636C220.545 123.636 216.985 124.621 214.136 126.591C211.318 128.53 209.909 131 209.909 134C209.909 136.667 210.879 138.773 212.818 140.318C214.758 141.864 217.788 143.152 221.909 144.182L232.273 146.727C238.515 148.242 243.167 150.561 246.227 153.682C249.288 156.773 250.818 160.758 250.818 165.636C250.818 169.636 249.667 173.212 247.364 176.364C245.091 179.515 241.909 182 237.818 183.818C233.727 185.636 228.97 186.545 223.545 186.545C216.424 186.545 210.53 185 205.864 181.909C202.218 179.495 199.618 176.211 198.062 172.058C197.308 170.046 198.648 167.952 200.733 167.43L203.331 166.781C205.462 166.248 207.563 167.577 208.573 169.528C209.591 171.492 210.961 173.074 212.682 174.273C215.409 176.152 218.97 177.091 223.364 177.091C228.364 177.091 232.333 176.03 235.273 173.909C238.242 171.758 239.727 169.182 239.727 166.182C239.727 163.758 238.879 161.727 237.182 160.091C235.485 158.424 232.879 157.182 229.364 156.364L217.727 153.636C211.333 152.121 206.636 149.773 203.636 146.591C200.667 143.379 199.182 139.364 199.182 134.545C199.182 130.606 200.288 127.121 202.5 124.091C204.742 121.061 207.788 118.682 211.636 116.955C215.515 115.227 219.909 114.364 224.818 114.364C231.727 114.364 237.152 115.879 241.091 118.909C243.974 121.11 246.25 123.822 247.918 127.046Z" fill="white"/>
<path d="M266.864 211.091C264.655 211.091 262.864 209.3 262.864 207.091V119.091C262.864 116.882 264.655 115.091 266.864 115.091H269.227C271.436 115.091 273.227 116.882 273.227 119.091V125.357C273.227 125.812 273.597 126.182 274.052 126.182V126.182C274.332 126.182 274.591 126.04 274.746 125.808C275.509 124.657 276.518 123.236 277.773 121.545C279.197 119.636 281.227 117.939 283.864 116.455C286.53 114.939 290.136 114.182 294.682 114.182C300.561 114.182 305.742 115.652 310.227 118.591C314.712 121.53 318.212 125.697 320.727 131.091C323.242 136.485 324.5 142.848 324.5 150.182C324.5 157.576 323.242 163.985 320.727 169.409C318.212 174.803 314.727 178.985 310.273 181.955C305.818 184.894 300.682 186.364 294.864 186.364C290.379 186.364 286.788 185.621 284.091 184.136C281.394 182.621 279.318 180.909 277.864 179C276.512 177.198 275.448 175.684 274.672 174.457C274.564 174.286 274.377 174.182 274.175 174.182V174.182C273.852 174.182 273.591 174.443 273.591 174.766V207.091C273.591 209.3 271.8 211.091 269.591 211.091H266.864ZM273.409 150C273.409 155.273 274.182 159.924 275.727 163.955C277.273 167.955 279.53 171.091 282.5 173.364C285.47 175.606 289.106 176.727 293.409 176.727C297.894 176.727 301.636 175.545 304.636 173.182C307.667 170.788 309.939 167.576 311.455 163.545C313 159.485 313.773 154.97 313.773 150C313.773 145.091 313.015 140.667 311.5 136.727C310.015 132.758 307.758 129.621 304.727 127.318C301.727 124.985 297.955 123.818 293.409 123.818C289.045 123.818 285.379 124.924 282.409 127.136C279.439 129.318 277.197 132.379 275.682 136.318C274.167 140.227 273.409 144.788 273.409 150Z" fill="white"/>
<path d="M369.545 185.091C362.818 185.091 357.015 183.606 352.136 180.636C347.288 177.636 343.545 173.455 340.909 168.091C338.303 162.697 337 156.424 337 149.273C337 142.121 338.303 135.818 340.909 130.364C343.545 124.879 347.212 120.606 351.909 117.545C356.636 114.455 362.151 112.909 368.455 112.909C372.091 112.909 375.682 113.515 379.227 114.727C382.773 115.939 386 117.909 388.909 120.636C391.818 123.333 394.136 126.909 395.864 131.364C397.591 135.818 398.455 141.303 398.455 147.818V148.364C398.455 150.573 396.664 152.364 394.455 152.364H348.636C346.427 152.364 344.636 150.573 344.636 148.364V147.091C344.636 144.882 346.427 143.091 348.636 143.091H383.545C385.755 143.091 387.586 141.289 387.255 139.105C386.896 136.74 386.205 134.553 385.182 132.545C383.636 129.455 381.424 127.015 378.545 125.227C375.697 123.439 372.333 122.545 368.455 122.545C364.182 122.545 360.485 123.606 357.364 125.727C354.273 127.818 351.894 130.545 350.227 133.909C348.561 137.273 347.727 140.879 347.727 144.727V150.909C347.727 156.182 348.636 160.652 350.455 164.318C352.303 167.955 354.864 170.727 358.136 172.636C361.409 174.515 365.212 175.455 369.545 175.455C372.364 175.455 374.909 175.061 377.182 174.273C379.485 173.455 381.47 172.242 383.136 170.636C383.983 169.805 384.732 168.872 385.383 167.837C386.49 166.079 388.537 164.977 390.537 165.538L393.406 166.344C395.574 166.952 396.845 169.254 395.81 171.255C394.782 173.243 393.467 175.067 391.864 176.727C389.288 179.364 386.106 181.424 382.318 182.909C378.53 184.364 374.273 185.091 369.545 185.091Z" fill="white"/>
<path d="M414.455 183.636C412.245 183.636 410.455 181.846 410.455 179.636V117.818C410.455 115.609 412.245 113.818 414.455 113.818H416.818C419.027 113.818 420.818 115.609 420.818 117.818V123.935C420.818 124.172 421.01 124.364 421.247 124.364V124.364C421.426 124.364 421.586 124.251 421.651 124.084C422.944 120.758 425.212 118.048 428.455 115.955C431.788 113.803 435.545 112.727 439.727 112.727C440.515 112.727 441.5 112.742 442.682 112.773V112.773C444.206 112.812 445.364 114.07 445.364 115.595V121.284C445.364 122.571 444.138 123.587 442.864 123.409V123.409C441.591 123.197 440.242 123.091 438.818 123.091C435.424 123.091 432.394 123.803 429.727 125.227C427.091 126.621 425 128.561 423.455 131.045C421.939 133.5 421.182 136.303 421.182 139.455V179.636C421.182 181.846 419.391 183.636 417.182 183.636H414.455Z" fill="white"/>
</svg>
